<svg xmlns="http://www.w3.org/2000/svg" viewBox="0 0 480 560" role="img" aria-labelledby="title desc">
  <title id="title">Profile Placeholder</title>
  <desc id="desc">Abstract placeholder portrait with data-inspired background.</desc>
  <defs><linearGradient id="bg" x1="0" y1="0" x2="1" y2="1"><stop offset="0%" stop-color="#0f8c8c"/><stop offset="100%" stop-color="#10222d"/></linearGradient></defs>
  <rect width="480" height="560" rx="36" fill="#edf5f5"/>
  <rect x="28" y="28" width="424" height="504" rx="28" fill="url(#bg)"/>
  <g fill="none" stroke="rgba(255,255,255,0.18)">
    <path d="M56 104h368"/><path d="M56 168h368"/><path d="M56 232h368"/><path d="M56 296h368"/><path d="M56 360h368"/><path d="M56 424h368"/><path d="M120 72v392"/><path d="M200 72v392"/><path d="M280 72v392"/><path d="M360 72v392"/>
  </g>
  <circle cx="240" cy="206" r="86" fill="#d6f0f0"/>
  <path d="M128 450c24-72 84-116 112-116s88 44 112 116" fill="#d6f0f0"/>
  <path d="M178 198c28-14 44-48 44-48s22 34 76 40" fill="none" stroke="#10222d" stroke-width="12" stroke-linecap="round"/>
  <text x="240" y="514" fill="#ffffff" font-family="IBM Plex Sans, Arial, sans-serif" font-size="26" font-weight="700" text-anchor="middle">Replace With Your Photo</text>
</svg>
